<svg width="24" height="24" viewBox="0 0 24 24" fill="none" xmlns="http://www.w3.org/2000/svg">
<path d="M19.3903 11.5358H18.0938C18.0689 11.5358 18.045 11.526 18.0275 11.5084C18.0099 11.4908 18 11.4669 18 11.4421V7.82145C18 7.33834 17.8081 6.87502 17.4665 6.53341C17.1249 6.1918 16.6615 5.99989 16.1784 5.99989H12.5578C12.5329 5.99989 12.5091 5.99001 12.4915 5.97243C12.4739 5.95485 12.4641 5.931 12.4641 5.90614V4.60958C12.4641 3.33739 11.4562 2.27239 10.1841 2.25036C9.87583 2.24494 9.56961 2.30097 9.28327 2.41516C8.99692 2.52935 8.73618 2.69942 8.51627 2.91546C8.29635 3.13149 8.12166 3.38916 8.00238 3.67342C7.88311 3.95769 7.82164 4.26286 7.82156 4.57114V5.90614C7.82156 5.931 7.81169 5.95485 7.7941 5.97243C7.77652 5.99001 7.75268 5.99989 7.72781 5.99989H4.10719C3.61509 6.00137 3.14357 6.19752 2.7956 6.54549C2.44763 6.89345 2.25148 7.36498 2.25 7.85708V11.1561C2.25 11.181 2.25988 11.2048 2.27746 11.2224C2.29504 11.24 2.31889 11.2499 2.34375 11.2499H3.60516C4.98188 11.2499 6.12141 12.4443 6.14062 13.821C6.16031 15.2211 5.03859 16.4999 3.64266 16.4999H2.34375C2.31889 16.4999 2.29504 16.5098 2.27746 16.5273C2.25988 16.5449 2.25 16.5688 2.25 16.5936V19.8927C2.25148 20.3848 2.44763 20.8563 2.7956 21.2043C3.14357 21.5523 3.61509 21.7484 4.10719 21.7499H7.40625C7.43111 21.7499 7.45496 21.74 7.47254 21.7224C7.49012 21.7048 7.5 21.681 7.5 21.6561V20.675C7.5 19.2557 8.66016 18.0336 10.0781 18.0004C11.4891 17.9675 12.75 18.9524 12.75 20.3572V21.6561C12.75 21.681 12.7599 21.7048 12.7775 21.7224C12.795 21.74 12.8189 21.7499 12.8438 21.7499H16.1784C16.6615 21.7499 17.1249 21.558 17.4665 21.2164C17.8081 20.8748 18 20.4114 18 19.9283V16.2721C18 16.2472 18.0099 16.2234 18.0275 16.2058C18.045 16.1882 18.0689 16.1783 18.0938 16.1783H19.4288C20.7239 16.1783 21.75 15.1157 21.75 13.8158C21.75 12.516 20.6625 11.5358 19.3903 11.5358Z" stroke="#95A8C0" stroke-width="1.5" stroke-linecap="round" stroke-linejoin="round"/>
</svg>
