<svg width="24" height="24" viewBox="0 0 24 24" fill="none" xmlns="http://www.w3.org/2000/svg">
<path d="M9.58 5.548C9.82067 5.43733 10.0713 5.342 10.332 5.262C12.212 4.69 14.288 5.069 15.776 6.262C17.264 7.452 17.938 9.269 17.546 11.031H18.536C20.449 11.031 22 12.591 22 14.517C22 15.474 21.617 16.341 20.997 16.971M18 18.004H6.657C4.085 18 2 15.993 2 13.517C2 11.041 4.085 9.035 6.657 9.035C6.787 8.453 7.027 7.907 7.357 7.415M3 3L21 21" stroke="#334356" stroke-width="1.5" stroke-linecap="round" stroke-linejoin="round"/>
</svg>
