<?xml version="1.0" encoding="UTF-8"?>
<svg version="1.1" xmlns="http://www.w3.org/2000/svg" width="24" height="24">
<path d="M0 0 C4.62127707 0.92425541 6.92050406 1.87935127 10.8125 4.3125 C12.27623047 5.20388672 12.27623047 5.20388672 13.76953125 6.11328125 C14.50558594 6.73589844 15.24164063 7.35851562 16 8 C16 9.32 16 10.64 16 12 C13.89949926 13.64204623 11.977941 14.93561303 9.6875 16.25 C9.09259766 16.61351563 8.49769531 16.97703125 7.88476562 17.3515625 C5.05272449 19.03496572 3.34770366 20 0 20 C0 13.4 0 6.8 0 0 Z M2 3 C2 7.62 2 12.24 2 17 C5.3 15.35 8.6 13.7 12 12 C12 10.68 12 9.36 12 8 C8.7 6.35 5.4 4.7 2 3 Z " fill="#0F151B" transform="translate(4,2)"/>
</svg>
